<?xml version="1.0" encoding="utf-8"?>
<!-- Generator: Adobe Illustrator 23.0.0, SVG Export Plug-In . SVG Version: 6.00 Build 0)  -->
<svg version="1.1" id="Layer_1" xmlns="http://www.w3.org/2000/svg" xmlns:xlink="http://www.w3.org/1999/xlink" x="0px" y="0px"
	 viewBox="0 0 35.9 32" style="enable-background:new 0 0 35.9 32;" xml:space="preserve">
<style type="text/css">
	.st0{display:none;fill:#00D8FF;}
</style>
<path class="st0" d="M29.5,10.4c-0.4-0.1-0.8-0.3-1.2-0.4c0.1-0.3,0.1-0.5,0.2-0.8c0.9-4.2,0.3-7.7-1.7-8.8c-1.9-1.1-4.9,0-8,2.7
	C18.6,3.4,18.3,3.7,18,4c-0.2-0.2-0.4-0.4-0.6-0.5c-3.2-2.9-6.5-4.1-8.4-3c-1.9,1-2.5,4.3-1.7,8.3C7.4,9.2,7.5,9.6,7.6,10
	c-0.5,0.1-0.9,0.3-1.3,0.4C2.4,11.7,0,13.8,0,16s2.6,4.5,6.6,5.8c0.3,0.1,0.6,0.2,1,0.3c-0.1,0.4-0.2,0.9-0.3,1.3
	c-0.8,4-0.2,7.1,1.7,8.2c1.9,1.1,5.2,0,8.3-2.8c0.3-0.2,0.5-0.5,0.7-0.7c0.3,0.3,0.6,0.6,1,0.9c3.1,2.6,6.1,3.7,7.9,2.6
	c1.9-1.1,2.6-4.5,1.7-8.6c-0.1-0.3-0.1-0.6-0.2-1c0.2-0.1,0.5-0.1,0.7-0.2c4.1-1.4,6.8-3.6,6.8-5.8S33.4,11.7,29.5,10.4z M28.6,20.3
	c-0.2,0.1-0.4,0.1-0.6,0.2c-0.5-1.4-1.1-3-1.8-4.6c0.7-1.5,1.3-3.1,1.7-4.5c0.4,0.1,0.7,0.2,1.1,0.3c3.3,1.1,5.4,2.8,5.4,4.1
	C34.4,17.3,32.2,19.1,28.6,20.3z M27.2,23.2c0.4,1.8,0.4,3.5,0.2,4.7c-0.2,1.2-0.6,1.9-1.2,2.2C25,30.9,22.6,30,20,27.8
	c-0.3-0.3-0.6-0.5-0.9-0.8c1-1.1,2-2.4,3-3.8c1.7-0.2,3.4-0.4,4.9-0.8C27,22.7,27.1,23,27.2,23.2z M12.2,30.1
	c-1.1,0.4-2,0.4-2.5,0.1c-1.1-0.7-1.6-3.2-1-6.6c0.1-0.4,0.2-0.8,0.3-1.2c1.5,0.3,3.1,0.6,4.8,0.7c1,1.4,2,2.7,3.1,3.8
	c-0.2,0.2-0.5,0.4-0.7,0.6C14.9,28.8,13.5,29.7,12.2,30.1z M7.1,20.3c-1.8-0.6-3.2-1.4-4.2-2.2C2,17.3,1.5,16.6,1.5,16
	c0-1.3,2-3,5.2-4.1c0.4-0.1,0.8-0.3,1.2-0.4c0.4,1.5,1,3,1.8,4.5C9,17.6,8.4,19.1,8,20.6C7.7,20.5,7.4,20.4,7.1,20.3z M8.8,8.5
	C8.1,5,8.6,2.4,9.7,1.8c1.2-0.7,3.9,0.3,6.7,2.8c0.2,0.2,0.4,0.3,0.5,0.5c-1,1.1-2.1,2.4-3.1,3.8C12.2,9,10.5,9.3,9.1,9.6
	C9,9.2,8.9,8.9,8.8,8.5L8.8,8.5z M24.3,12.3c-0.4-0.6-0.7-1.2-1.1-1.8c1.1,0.1,2.2,0.3,3.3,0.6c-0.3,1-0.7,2-1.1,3.1
	C25,13.6,24.7,12.9,24.3,12.3z M18,6.2c0.7,0.8,1.4,1.6,2.1,2.6c-1.4-0.1-2.8-0.1-4.2,0C16.5,7.8,17.3,6.9,18,6.2z M11.6,12.3
	c-0.4,0.6-0.7,1.2-1,1.9c-0.4-1.1-0.8-2.1-1.1-3.1c1-0.2,2.1-0.4,3.3-0.6C12.3,11.1,12,11.7,11.6,12.3L11.6,12.3z M12.8,21.5
	c-1.2-0.1-2.3-0.3-3.3-0.5c0.3-1,0.7-2.1,1.2-3.2c0.3,0.6,0.7,1.2,1,1.9C12,20.3,12.4,20.9,12.8,21.5z M18,25.9
	c-0.7-0.8-1.5-1.7-2.2-2.6c0.7,0,1.4,0,2.1,0c0.7,0,1.5,0,2.2,0C19.4,24.2,18.7,25.1,18,25.9z M25.4,17.7c0.5,1.1,0.9,2.2,1.2,3.2
	c-1,0.2-2.2,0.4-3.4,0.6c0.4-0.6,0.7-1.2,1.1-1.8C24.7,19,25,18.4,25.4,17.7z M23,18.9c-0.5,0.9-1.1,1.9-1.7,2.8
	c-1.1,0.1-2.2,0.1-3.3,0.1c-1.1,0-2.2,0-3.3-0.1c-0.6-0.9-1.2-1.8-1.8-2.8l0,0C12.4,18,11.8,17,11.4,16c0.5-1,1-2,1.5-2.9l0,0
	c0.5-0.9,1.1-1.9,1.7-2.8c1.1-0.1,2.2-0.1,3.3-0.1l0,0c1.1,0,2.2,0,3.3,0.1c0.6,0.9,1.2,1.8,1.7,2.8C23.5,14,24,15,24.5,16
	C24,17,23.5,17.9,23,18.9z M26.1,1.7c1.2,0.7,1.7,3.5,0.9,7.2c0,0.2-0.1,0.5-0.2,0.7C25.3,9.3,23.7,9,22,8.8c-1-1.4-2-2.7-3-3.8
	c0.3-0.3,0.5-0.5,0.8-0.8C22.5,2,25,1.1,26.1,1.7z M18,12.7c1.8,0,3.2,1.4,3.2,3.2s-1.4,3.2-3.2,3.2s-3.2-1.4-3.2-3.2
	S16.2,12.7,18,12.7z"/>
<g>
	<g>
		<path d="M8,6.4v9.7c0,0.8,0,1.3,0.1,1.7c0.1,0.4,0.2,0.7,0.5,0.9c0.2,0.2,0.4,0.4,0.7,0.5c0.3,0.1,0.6,0.2,1,0.2v0.3H5.2v-0.3
			c0.4,0,0.8-0.1,1-0.2c0.3-0.1,0.5-0.3,0.7-0.5c0.2-0.2,0.4-0.5,0.5-0.9c0.1-0.4,0.1-0.9,0.1-1.7V7.9c0-0.8,0-1.3-0.1-1.7
			C7.4,5.9,7.2,5.6,7,5.3C6.8,5.1,6.6,5,6.3,4.9C6,4.8,5.7,4.7,5.2,4.7V4.4h4.3l5.4,6.8h-0.6c-0.4,0-0.8,0.3-0.8,0.8v0.3
			c0,0.4,0.3,0.7,0.7,0.7c0.4,0,0.7,0.1,0.8,0.1c0.2,0.1,0.3,0.2,0.4,0.3c0.1,0.1,0.2,0.3,0.3,0.5c0,0.2,0.1,0.7,0.1,1.5v0.7L8,6.4z
			"/>
		<path d="M19.8,12v0.8c-0.1,0-0.1,0.1-0.1,0.1c-0.3,0.3-0.4,0.6-0.5,0.9c-0.1,0.4-0.1,1-0.1,1.9v4.6h-0.5c-0.3,0-0.5-0.1-0.6-0.3
			l-1.3-1.7v-2.9c0-0.8,0-1.3-0.1-1.7c-0.1-0.4-0.2-0.6-0.5-0.9c-0.2-0.2-0.4-0.4-0.7-0.5c-0.3-0.1-0.6-0.1-1-0.2V12h1.2l3.1,4v-4
			H19.8z"/>
		<path d="M21.4,4.4v0.3c-0.7,0-1.3,0.2-1.7,0.7c-0.2,0.2-0.4,0.5-0.5,0.9C19.1,6.6,19,7.2,19,7.9v3.3h-0.5V7.9c0-0.8,0-1.3-0.1-1.7
			c-0.1-0.4-0.2-0.7-0.5-0.9c-0.2-0.2-0.4-0.4-0.7-0.5c-0.3-0.1-0.6-0.2-1-0.2V4.4H21.4z"/>
		<path d="M16.2,4.4v0.3c0.4,0,0.8,0.1,1,0.2C17.5,5,17.8,5.1,18,5.3c0.2,0.2,0.4,0.5,0.5,0.9c0.1,0.4,0.1,0.9,0.1,1.7v3.3H19V7.9
			c0-0.8,0-1.3,0.1-1.7c0.1-0.4,0.2-0.7,0.5-0.9c0.4-0.4,1-0.7,1.7-0.7V4.4H16.2z M18.6,12v4l-3.1-4h-1.2v0.3c0.4,0,0.8,0.1,1,0.2
			c0.3,0.1,0.5,0.3,0.7,0.5c0.2,0.2,0.4,0.5,0.5,0.9c0.1,0.4,0.1,0.9,0.1,1.7v1.7l1.9,2.4H19V12H18.6z M15.8,16.3v-0.7
			c0-0.9-0.1-1.3-0.1-1.5c0-0.2-0.1-0.4-0.3-0.5c-0.1-0.1-0.3-0.2-0.4-0.3c-0.1-0.1-0.4-0.1-0.8-0.1c-0.4,0-0.7-0.4-0.7-0.7V12
			c0-0.4,0.3-0.8,0.8-0.8h0.6L9.5,4.4H5.2v0.3c0.4,0,0.8,0.1,1,0.2C6.5,5,6.8,5.1,7,5.3c0.2,0.2,0.4,0.5,0.5,0.9
			c0.1,0.4,0.1,0.9,0.1,1.7v8.2c0,0.8-0.1,1.3-0.1,1.7c-0.1,0.4-0.2,0.7-0.5,0.9c-0.2,0.2-0.4,0.4-0.7,0.5c-0.3,0.1-0.6,0.1-1,0.2
			v0.3h5.1v-0.3c-0.4,0-0.8-0.1-1-0.2c-0.3-0.1-0.5-0.3-0.7-0.5c-0.2-0.2-0.4-0.5-0.5-0.9C8.1,17.5,8,16.9,8,16.1V6.4L15.8,16.3z"/>
	</g>
	<g>
		<path d="M30.7,12v0.3c-0.4,0-0.8,0.1-1,0.2c-0.3,0.1-0.5,0.3-0.7,0.5c-0.2,0.2-0.4,0.5-0.5,0.9c-0.1,0.4-0.1,0.9-0.1,1.7v7
			c0,1-0.1,1.8-0.2,2.3c-0.2,0.5-0.5,0.9-1,1.3c-1.1,0.9-2.6,1.4-4.6,1.4c-2.1,0-3.6-0.4-4.6-1.3c-0.7-0.6-1-1.3-1.2-2.2
			c0-0.3-0.1-0.9-0.1-1.8v-6.8c0-0.8,0-1.3-0.1-1.7c-0.1-0.4-0.2-0.6-0.5-0.9c-0.2-0.2-0.4-0.4-0.7-0.5c-0.3-0.1-0.6-0.1-1-0.2V12
			h1.2l3.1,4v-4h2.8v0.3c-0.4,0-0.8,0.1-1,0.2c-0.2,0.1-0.4,0.2-0.5,0.3c-0.1,0-0.1,0.1-0.1,0.1c-0.3,0.3-0.4,0.6-0.5,0.9
			c-0.1,0.4-0.1,1-0.1,1.9v6.3c0,1,0,1.8,0.1,2.2c0.1,0.5,0.2,0.9,0.5,1.3c0.4,0.6,0.8,1,1.3,1.3c0.5,0.3,1.2,0.4,2,0.4
			c0.8,0,1.5-0.1,2.2-0.3c0.7-0.2,1.3-0.6,1.8-1c0.3-0.3,0.5-0.5,0.6-0.9c0.1-0.3,0.2-0.7,0.3-1.2c0-0.3,0-1,0-2.2v-6.2
			c0-0.8,0-1.3-0.1-1.7c-0.1-0.4-0.2-0.6-0.5-0.9c-0.2-0.2-0.4-0.4-0.7-0.5c-0.3-0.1-0.6-0.1-1-0.2V12H30.7z"/>
		<path d="M25.5,12v0.3c0.4,0,0.8,0.1,1,0.2c0.3,0.1,0.5,0.3,0.7,0.5c0.2,0.2,0.4,0.5,0.5,0.9c0.1,0.4,0.1,0.9,0.1,1.7v6.2
			c0,1.1,0,1.9,0,2.2c0,0.5-0.1,0.9-0.3,1.2c-0.1,0.3-0.3,0.6-0.6,0.9c-0.5,0.4-1.1,0.8-1.8,1c-0.7,0.2-1.4,0.3-2.2,0.3
			c-0.8,0-1.5-0.1-2-0.4c-0.5-0.3-1-0.7-1.3-1.3c-0.2-0.4-0.4-0.8-0.5-1.3c-0.1-0.5-0.1-1.2-0.1-2.2v-6.3c0-0.9,0-1.5,0.1-1.9
			c0.1-0.4,0.2-0.7,0.5-0.9c0,0,0.1-0.1,0.1-0.1c0.2-0.2,0.3-0.3,0.5-0.3c0.3-0.1,0.6-0.1,1-0.2V12h-2.8v4l-3.1-4h-1.2v0.3
			c0.4,0,0.8,0.1,1,0.2c0.3,0.1,0.5,0.3,0.7,0.5c0.2,0.2,0.4,0.5,0.5,0.9c0.1,0.4,0.1,0.9,0.1,1.7v6.8c0,0.8,0,1.4,0.1,1.8
			c0.1,0.9,0.5,1.7,1.2,2.2c1,0.9,2.5,1.3,4.6,1.3c2,0,3.6-0.5,4.6-1.4c0.5-0.4,0.8-0.8,1-1.3c0.1-0.5,0.2-1.3,0.2-2.3v-7
			c0-0.8,0-1.3,0.1-1.7c0.1-0.4,0.2-0.7,0.5-0.9c0.2-0.2,0.4-0.4,0.7-0.5c0.3-0.1,0.6-0.1,1-0.2V12H25.5z"/>
	</g>
</g>
</svg>
